<svg width="166" height="128" viewBox="0 0 166 128" fill="none" xmlns="http://www.w3.org/2000/svg">
<path d="M0.333317 24.3265C0.708151 25.288 1.56954 25.9586 2.56332 25.9586H54.0099L26.1687 76H63.3132L85.4297 35.3248V76H114.044V75.1768H152.138C153.472 75.1768 154.567 73.9681 154.567 72.4694V52.2611C154.567 50.7624 153.472 49.5538 152.138 49.5538H114.044V25.6229H163.559C164.894 25.6229 165.989 24.4143 165.989 22.9156V2.70733C165.989 1.20863 164.894 0 163.559 0H93.4231L86 15L78.6653 0.178558H69.7812C69.51 0.178558 69.2497 0.238989 69.011 0.335679H12.2057L0.333317 24.3265Z" fill="#1E1E1E"/>
<path d="M21.1615 85L23.9433 80H61.1382L58.4196 85H21.1615Z" fill="#1E1E1E"/>
<path d="M18.936 89L0.383107 122.347C-0.105 123.229 -0.126693 124.341 0.318027 125.248C0.773593 126.154 1.63049 126.71 2.56332 126.71H34.2903C34.5615 126.71 34.8218 126.65 35.0713 126.565H81.4699L87 111L92.8446 127.45H157.668L165.968 104.091C165.777 102.805 164.77 101.827 163.57 101.827H114.044V89H85.4297V100.93H49.7579L56.2446 89H18.936Z" fill="#1E1E1E"/>
<path d="M85.4297 85H114.044V80H85.4297V85Z" fill="#1E1E1E"/>
</svg>
